<?xml version="1.0" encoding="utf-8"?>
<!-- Generator: Adobe Illustrator 16.0.3, SVG Export Plug-In . SVG Version: 6.00 Build 0)  -->
<!DOCTYPE svg PUBLIC "-//W3C//DTD SVG 1.1//EN" "http://www.w3.org/Graphics/SVG/1.1/DTD/svg11.dtd">
<svg version="1.1" id="レイヤー_1" xmlns="http://www.w3.org/2000/svg" xmlns:xlink="http://www.w3.org/1999/xlink" x="0px"
	 y="0px" width="1080px" height="1920px" viewBox="0 0 1080 1920" enable-background="new 0 0 1080 1920" xml:space="preserve">
<pattern  x="119.5" y="1257.5" width="100" height="100" patternUnits="userSpaceOnUse" id="grid" viewBox="0.5 -100.5 100 100" overflow="visible">
	<g>
		<polygon fill="none" points="0.5,-0.5 100.5,-0.5 100.5,-100.5 0.5,-100.5 		"/>
		<path fill="none" stroke="#1A237E" d="M100.5-0.5H0.5v-100"/>
	</g>
</pattern>
<rect fill="#0A0A0A" width="1080" height="1920"/>
<pattern  id="SVGID_1_" xlink:href="#grid" patternTransform="matrix(1 0 0 -1 -19.5 -15321.0195)">
</pattern>
<rect opacity="0.3" fill="url(#SVGID_1_)" enable-background="new    " width="1080" height="1920"/>
<text transform="matrix(1 0 0 1 393.9131 584.0034)" fill="#AAAAAA" font-family="'ArialMT'" font-size="20" letter-spacing="2">SCAN FOR OFFICIAL SITE</text>
<text transform="matrix(1 0 0 1 356.6699 1302.0098)" fill="#FFFFFF" font-family="'Arial-BoldMT'" font-size="60" letter-spacing="3">FAIR FAITH</text>
<text transform="matrix(1 0 0 1 287.978 1372.0098)" fill="#AAAAAA" font-family="'ArialMT'" font-size="30" letter-spacing="7">PROTOCOL PROTECTED</text>
<g transform="translate(0, 500)">
	<path fill="none" stroke="#FF3D00" stroke-width="4" d="M150,982h780c5.522,0,10,4.478,10,10v180c0,5.522-4.478,10-10,10H150
		c-5.523,0-10-4.478-10-10V992C140,986.478,144.477,982,150,982z"/>
	<text transform="matrix(1 0 0 1 443.3398 1042.0049)" fill="#FF3D00" font-family="'Arial-BoldMT'" font-size="40">WARNING</text>
	<text transform="matrix(1 0 0 1 367.0576 1102.0049)" fill="#FFFFFF" font-family="'ArialMT'" font-size="28">SOLICITATION REJECTED</text>
	<text transform="matrix(1 0 0 1 313.7168 1142.0049)" fill="#CCCCCC" font-family="'ArialMT'" font-size="24">LOG_ID: REFUSAL_AUTO_GENERATED</text>
</g>
<g>
	<circle fill="#1A237E" cx="540" cy="917.889" r="256.393"/>
	<g transform="translate(320 320) scale(0.7) translate(-320 -320)">
		<path fill="#FFFFFF" d="M685.565,994.651h102.557c14.181,0,25.638,11.458,25.638,25.64s-11.456,25.64-25.638,25.64h-91.021
			c-4.164,20.671-18.348,37.737-37.176,45.91v236.123h128.198c14.181,0,25.638,11.458,25.638,25.638
			c0,14.181-11.456,25.639-25.638,25.639H480.45c-14.182,0-25.64-11.458-25.64-25.639c0-14.18,11.458-25.638,25.64-25.638h128.195
			V1091.84c-18.828-8.252-33.01-25.318-37.176-45.91H480.45c-14.182,0-25.64-11.458-25.64-25.64s11.458-25.64,25.64-25.64h102.557
			c11.698-15.543,30.286-25.639,51.278-25.639C655.278,969.012,673.867,979.108,685.565,994.651z M730.112,1225.405H846.13
			l-58.008-99.512L730.112,1225.405z M788.122,1302.322c-50.399,0-92.302-27.241-100.954-63.216
			c-2.084-8.814,0.801-17.868,5.367-25.721l76.278-130.759c4.004-6.891,11.375-11.057,19.309-11.057
			c7.931,0,15.303,4.247,19.307,11.057l76.278,130.759c4.568,7.852,7.451,16.906,5.367,25.721
			C880.421,1275.001,838.518,1302.322,788.122,1302.322z M479.489,1125.893l-58.008,99.512h116.097L479.489,1125.893z
			 M378.614,1239.106c-2.084-8.814,0.801-17.868,5.368-25.721l76.277-130.759c4.007-6.891,11.378-11.057,19.309-11.057
			c7.932,0,15.304,4.247,19.31,11.057l76.277,130.759c4.566,7.852,7.451,16.906,5.368,25.721
			c-8.654,35.896-50.557,63.216-100.955,63.216C429.171,1302.322,387.267,1275.081,378.614,1239.106z"/>
	</g>
</g>
<g>
	<path fill="#FFFFFF" d="M356.471,160.495h367.058v367.058H356.471V160.495z"/>
	<path stroke="#000000" stroke-width="12.6572" d="M407.1,217.452h88.6 M508.357,217.452h25.314 M558.986,217.452h12.656
		 M584.301,217.452h88.6 M407.1,230.109h12.657 M483.043,230.109H495.7 M558.986,230.109h12.656 M584.301,230.109h12.656
		 M660.244,230.109H672.9 M407.1,242.766h12.657 M432.414,242.766h37.972 M483.043,242.766H495.7 M508.357,242.766h12.657
		 M533.671,242.766h37.971 M584.301,242.766h12.656 M609.615,242.766h37.971 M660.244,242.766H672.9 M407.1,255.423h12.657
		 M432.414,255.423h37.972 M483.043,255.423H495.7 M508.357,255.423h25.314 M558.986,255.423h12.656 M584.301,255.423h12.656
		 M609.615,255.423h37.971 M660.244,255.423H672.9 M407.1,268.081h12.657 M432.414,268.081h37.972 M483.043,268.081H495.7
		 M508.357,268.081h37.971 M558.986,268.081h12.656 M584.301,268.081h12.656 M609.615,268.081h37.971 M660.244,268.081H672.9
		 M407.1,280.738h12.657 M483.043,280.738H495.7 M584.301,280.738h12.656 M660.244,280.738H672.9 M407.1,293.394h88.6
		 M508.357,293.394h12.657 M533.671,293.394h12.657 M558.986,293.394h12.656 M584.301,293.394h88.6 M521.014,306.051h25.314
		 M407.1,318.708h50.628 M483.043,318.708H495.7 M508.357,318.708h12.657 M533.671,318.708h25.315 M571.643,318.708h12.658
		 M609.615,318.708h37.971 M660.244,318.708H672.9 M407.1,331.366h12.657 M445.071,331.366h25.314 M495.7,331.366h25.314
		 M533.671,331.366h25.315 M584.301,331.366h37.971 M660.244,331.366H672.9 M483.043,344.023H495.7 M508.357,344.023h12.657
		 M558.986,344.023h12.656 M584.301,344.023h25.314 M622.271,344.023h25.314 M407.1,356.68h12.657 M432.414,356.68h12.657
		 M457.729,356.68h25.314 M521.014,356.68h25.314 M558.986,356.68h75.943 M407.1,369.337h25.314 M445.071,369.337h75.943
		 M546.328,369.337h12.658 M571.643,369.337h25.314 M609.615,369.337h12.656 M508.357,381.995h12.657 M533.671,381.995h50.629
		 M609.615,381.995h12.656 M647.586,381.995h12.658 M407.1,394.652h88.6 M533.671,394.652h12.657 M558.986,394.652h12.656
		 M622.271,394.652h12.658 M647.586,394.652h12.658 M407.1,407.309h12.657 M483.043,407.309H495.7 M533.671,407.309h12.657
		 M596.957,407.309H672.9 M407.1,419.966h12.657 M432.414,419.966h37.972 M483.043,419.966H495.7 M521.014,419.966h12.657
		 M546.328,419.966h12.658 M571.643,419.966h25.314 M622.271,419.966h12.658 M407.1,432.624h12.657 M432.414,432.624h37.972
		 M483.043,432.624H495.7 M508.357,432.624h50.629 M571.643,432.624h12.658 M596.957,432.624h37.973 M647.586,432.624h12.658
		 M407.1,445.281h12.657 M432.414,445.281h37.972 M483.043,445.281H495.7 M508.357,445.281h63.286 M609.615,445.281h12.656
		 M407.1,457.938h12.657 M483.043,457.938H495.7 M508.357,457.938h25.314 M546.328,457.938h37.973 M596.957,457.938h12.658
		 M622.271,457.938h12.658 M407.1,470.594h88.6 M508.357,470.594h12.657 M533.671,470.594h12.657 M558.986,470.594h50.629
		 M622.271,470.594h37.973"/>
</g>
</svg>
