<svg xmlns="http://www.w3.org/2000/svg" viewBox="0 0 1080 1920" width="1080" height="1920">
  <rect width="100%" height="100%" fill="#0a0a0a"/>
  <defs>
    <pattern id="grid" width="100" height="100" patternUnits="userSpaceOnUse">
      <path d="M 100 0 L 0 0 0 100" fill="none" stroke="#1a237e" stroke-width="1"/>
    </pattern>
  </defs>
  <rect width="100%" height="100%" fill="url(#grid)" opacity="0.3"/>

  <g transform="translate(540, 350)">
    <rect x="-130" y="-130" width="260" height="260" rx="20" fill="#ffffff"/>
    <rect x="-140" y="-140" width="280" height="280" rx="25" fill="none" stroke="#1a237e" stroke-width="4"/>
    
    <g transform="translate(-100, -100) scale(8)">
      <path fill="#000000" d="M0 0h7v1H0zM8 0h2v1H8zM11 0h1v1h-1zM13 0h3v1h-3zM17 0h1v1h-1zM19 0h1v1h-1zM21 0h1v1h-1zM23 0h2v1h-2zM0 1h1v1H0zM6 1h1v1H6zM8 1h1v1H8zM10 1h1v1h-1zM12 1h3v1h-3zM16 1h2v1h-2zM21 1h1v1h-1zM24 1h1v1h-1zM0 2h1v1H0zM2 2h3v1H2zM6 2h1v1H6zM8 2h2v1H8zM13 2h2v1h-2zM16 2h1v1h-1zM18 2h2v1h-2zM21 2h1v1h-1zM23 2h2v1h-2zM0 3h1v1H0zM2 3h3v1H2zM6 3h1v1H6zM8 3h1v1H8zM10 3h2v1h-2zM13 3h2v1h-2zM16 3h2v1h-2zM19 3h1v1h-1zM21 3h1v1h-1zM24 3h1v1h-1zM0 4h1v1H0zM2 4h3v1H2zM6 4h1v1H6zM8 4h2v1H8zM11 4h2v1h-2zM16 4h1v1h-1zM18 4h2v1h-2zM23 4h2v1h-2zM0 5h1v1H0zM6 5h1v1H6zM8 5h1v1H8zM10 5h1v1h-1zM12 5h2v1h-2zM15 5h1v1h-1zM17 5h1v1h-1zM19 5h1v1h-1zM21 5h3v1h-3zM0 6h7v1H0zM8 6h1v1H8zM10 6h1v1h-1zM14 6h2v1h-2zM17 6h3v1h-3zM23 6h1v1h-1zM0 8h4v1H0zM5 8h1v1H5zM7 8h1v1H7zM10 8h1v1h-1zM13 8h1v1h-1zM17 8h1v1h-1zM19 8h1v1h-1zM21 8h3v1h-3zM1 9h2v1H1zM6 9h1v1H6zM8 9h1v1H8zM11 9h2v1h-2zM14 9h2v1h-2zM18 9h1v1h-1zM20 9h2v1h-2zM23 9h1v1h-1zM1 10h1v1H1zM3 10h1v1H3zM5 10h1v1H5zM8 10h1v1H8zM10 10h2v1h-2zM13 10h1v1h-1zM16 10h1v1h-1zM18 10h3v1h-3zM22 10h2v1h-2zM2 11h1v1H2zM4 11h2v1H4zM7 11h1v1H7zM9 11h2v1H9zM12 11h1v1h-1zM14 11h2v1h-2zM17 11h2v1h-2zM21 11h1v1h-1zM23 11h2v1h-2zM2 12h1v1H2zM6 12h3v1H6zM10 12h4v1h-4zM15 12h2v1h-2zM21 12h2v1h-2zM24 12h1v1h-1zM2 13h1v1H2zM4 13h1v1H4zM7 13h1v1H7zM10 13h1v1h-1zM12 13h2v1h-2zM15 13h1v1h-1zM17 13h3v1h-3zM23 13h1v1h-1zM1 14h1v1H1zM3 14h1v1H3zM5 14h1v1H5zM7 14h1v1H7zM9 14h1v1H9zM11 14h1v1h-1zM15 14h1v1h-1zM19 14h1v1h-1zM22 14h2v1h-2zM3 15h1v1H3zM6 15h1v1H6zM8 15h1v1H8zM11 15h2v1h-2zM15 15h2v1h-2zM18 15h1v1h-1zM20 15h2v1h-2zM24 15h1v1h-1zM0 16h1v1H0zM3 16h1v1H3zM5 16h1v1H5zM7 16h3v1H7zM11 16h2v1h-2zM14 16h1v1h-1zM16 16h1v1h-1zM18 16h1v1h-1zM20 16h2v1h-2zM23 16h1v1h-1zM3 17h1v1H3zM5 17h1v1H5zM8 17h2v1H8zM12 17h2v1h-2zM17 17h3v1h-3zM21 17h1v1h-1zM0 18h7v1H0zM8 18h1v1H8zM11 18h1v1h-1zM14 18h1v1h-1zM16 18h3v1h-3zM20 18h2v1h-2zM23 18h1v1h-1zM0 19h1v1H0zM6 19h1v1H6zM9 19h1v1H9zM11 19h1v1h-1zM14 19h3v1h-3zM20 19h3v1h-3zM24 19h1v1h-1zM0 20h1v1H0zM2 20h3v1H2zM6 20h1v1H6zM9 20h1v1H9zM13 20h1v1h-1zM15 20h1v1h-1zM17 20h1v1h-1zM21 20h1v1h-1zM23 20h1v1h-1zM0 21h1v1H0zM2 21h3v1H2zM6 21h1v1H6zM9 21h2v1H9zM12 21h1v1h-1zM15 21h1v1h-1zM18 21h4v1h-4zM23 21h2v1h-2zM0 22h1v1H0zM2 22h3v1H2zM6 22h1v1H6zM8 22h1v1H8zM10 22h2v1h-2zM13 22h1v1h-1zM16 22h1v1h-1zM18 22h1v1h-1zM21 22h2v1h-2zM0 23h1v1H0zM6 23h1v1H6zM8 23h1v1H8zM10 23h2v1h-2zM13 23h2v1h-2zM17 23h1v1h-1zM20 23h2v1h-2zM23 23h2v1h-2zM0 24h7v1H0zM8 24h3v1H8zM12 24h1v1h-1zM17 24h1v1h-1zM22 24h1v1h-1zM24 24h1v1h-1z"/>
    </g>
    <text x="0" y="180" text-anchor="middle" font-family="Arial, sans-serif" font-size="20" fill="#aaaaaa" letter-spacing="2">SCAN FOR OFFICIAL SITE</text>
  </g>

  <g transform="translate(540, 900)">
    <path d="M10,0 C10,0 0,50 0,120 C0,190 10,240 10,240 L130,300 L250,240 C250,240 260,190 260,120 C260,50 250,0 250,0 L130,60 L10,0 Z" fill="none" stroke="#ffffff" stroke-width="10" transform="translate(-130, -150)"/>
    <path d="M10,0 C10,0 0,50 0,120 C0,190 10,240 10,240 L130,300 L250,240 C250,240 260,190 260,120 C260,50 250,0 250,0 L130,60 L10,0 Z" fill="#1a237e" opacity="0.5" transform="translate(-130, -150)"/>
    <path d="M90,130 L120,160 L180,80" fill="none" stroke="#ffffff" stroke-width="15" stroke-linecap="round" stroke-linejoin="round" transform="translate(-130, -130)"/>
    
    <text x="0" y="250" text-anchor="middle" font-family="Arial, sans-serif" font-weight="bold" font-size="60" fill="#ffffff" letter-spacing="4">FAIR FAITH</text>
    <text x="0" y="320" text-anchor="middle" font-family="Arial, sans-serif" font-size="30" fill="#aaaaaa" letter-spacing="8">PROTOCOL PROTECTED</text>
    
    <g transform="translate(0, 500)">
      <rect x="-400" y="0" width="800" height="200" rx="10" fill="none" stroke="#ff3d00" stroke-width="4"/>
      <text x="0" y="60" text-anchor="middle" font-family="Arial, sans-serif" font-weight="bold" font-size="40" fill="#ff3d00">WARNING</text>
      <text x="0" y="120" text-anchor="middle" font-family="Arial, sans-serif" font-size="28" fill="#ffffff">SOLICITATION REJECTED</text>
      <text x="0" y="160" text-anchor="middle" font-family="Arial, sans-serif" font-size="24" fill="#cccccc">LOG_ID: REFUSAL_AUTO_GENERATED</text>
    </g>
  </g>
</svg>
