<svg xmlns="http://www.w3.org/2000/svg" viewBox="0 0 1080 1920" width="1080" height="1920">
  <rect width="100%" height="100%" fill="#0a0a0a"/>
  
  <defs>
    <pattern id="grid" width="100" height="100" patternUnits="userSpaceOnUse">
      <path d="M 100 0 L 0 0 0 100" fill="none" stroke="#1a237e" stroke-width="1"/>
    </pattern>
  </defs>
  <rect width="100%" height="100%" fill="url(#grid)" opacity="0.3"/>

  <g transform="translate(540, 350)">
    <rect x="-150" y="-150" width="300" height="300" fill="none" stroke="#1a237e" stroke-width="4" opacity="0.5"/>
    <g transform="translate(-125, -125) scale(5)">
        <path fill="#ffffff" d="M0 0h7v1H0zM8 0h2v1H8zM11 0h3v1h-3zM15 0h2v1h-2zM18 0h7v1h-7zM0 1h1v1H0zM6 1h1v1H6zM8 1h1v1H8zM10 1h1v1h-1zM12 1h1v1h-1zM14 1h1v1h-1zM16 1h2v1h-2zM18 1h1v1h-1zM24 1h1v1h-1zM0 2h1v1H0zM2 2h3v1H2zM6 2h1v1H6zM8 2h1v1H8zM10 2h1v1h-1zM12 2h3v1h-3zM16 2h1v1h-1zM18 2h1v1h-1zM20 2h3v1h-3zM24 2h1v1h-1zM0 3h1v1H0zM2 3h3v1H2zM6 3h1v1H6zM8 3h2v1H8zM11 3h3v1h-3zM15 3h2v1h-2zM18 3h1v1h-1zM20 3h3v1h-3zM24 3h1v1h-1zM0 4h1v1H0zM2 4h3v1H2zM6 4h1v1H6zM8 4h1v1H8zM11 4h1v1h-1zM16 4h1v1h-1zM18 4h1v1h-1zM20 4h3v1h-3zM24 4h1v1h-1zM0 5h1v1H0zM6 5h1v1H6zM9 5h1v1H9zM12 5h2v1h-2zM15 5h1v1h-1zM18 5h1v1h-1zM24 5h1v1h-1zM0 6h7v1H0zM8 6h1v1H8zM10 6h1v1h-1zM13 6h2v1h-2zM16 6h1v1h-1zM18 6h7v1h-7zM8 7h2v1H8zM12 7h1v1h-1zM14 7h1v1h-1zM16 7h1v1h-1zM0 8h2v1H0zM3 8h3v1H3zM7 8h2v1H7zM11 8h1v1h-1zM13 8h2v1h-2zM16 8h1v1h-1zM19 8h1v1h-1zM22 8h2v1h-2zM2 9h1v1H2zM4 9h1v1H4zM8 9h1v1H8zM10 9h2v1h-2zM15 9h1v1h-1zM17 9h3v1h-3zM21 9h2v1h-2zM24 9h1v1h-1zM1 10h1v1H1zM3 10h1v1H3zM7 10h2v1H7zM10 10h1v1h-1zM12 10h3v1h-3zM17 10h2v1h-2zM22 10h2v1h-2zM0 11h1v1H0zM2 11h1v1H2zM5 11h1v1H5zM7 11h2v1H7zM11 11h1v1h-1zM13 11h2v1h-2zM16 11h1v1h-1zM18 11h1v1h-1zM23 11h1v1h-1zM1 12h2v1H1zM5 12h2v1H5zM8 12h2v1H8zM11 12h1v1h-1zM13 12h1v1h-1zM16 12h1v1h-1zM20 12h1v1h-1zM24 12h1v1h-1zM1 13h1v1H1zM3 13h1v1H3zM7 13h1v1H7zM9 13h1v1H9zM11 13h1v1h-1zM14 13h2v1h-2zM18 13h3v1h-3zM22 13h2v1h-2zM1 14h1v1H1zM3 14h3v1H3zM8 14h3v1H8zM12 14h3v1h-3zM17 14h1v1h-1zM20 14h1v1h-1zM22 14h1v1h-1zM24 14h1v1h-1zM0 15h1v1H0zM2 15h2v1H2zM5 15h3v1H5zM9 15h1v1H9zM11 15h2v1h-2zM15 15h1v1h-1zM17 15h1v1h-1zM20 15h1v1h-1zM22 15h2v1h-2zM1 16h2v1H1zM4 16h1v1H4zM7 16h1v1H7zM11 16h1v1h-1zM13 16h1v1h-1zM15 16h3v1h-3zM22 16h1v1h-1zM24 16h1v1h-1zM0 17h8v1H0zM10 17h1v1h-1zM12 17h1v1h-1zM17 17h3v1h-3zM21 17h1v1h-1zM23 17h1v1h-1zM0 18h1v1H0zM6 18h1v1H6zM8 18h1v1H8zM10 18h4v1h-4zM16 18h2v1h-2zM19 18h1v1h-1zM21 18h1v1h-1zM23 18h1v1h-1zM0 19h1v1H0zM2 19h3v1H2zM6 19h1v1H6zM9 19h2v1H9zM12 19h1v1h-1zM14 19h1v1h-1zM16 19h1v1h-1zM19 19h1v1h-1zM21 19h1v1h-1zM0 20h1v1H0zM2 20h3v1H2zM6 20h1v1H6zM9 20h2v1H9zM13 20h3v1h-3zM19 20h1v1h-1zM21 20h3v1h-3zM0 21h1v1H0zM2 21h3v1H2zM6 21h1v1H6zM9 21h1v1H9zM11 21h1v1h-1zM13 21h1v1h-1zM16 21h3v1h-3zM22 21h1v1h-1zM24 21h1v1h-1zM0 22h1v1H0zM6 22h1v1H6zM8 22h2v1H8zM12 22h1v1h-1zM14 22h2v1h-2zM18 22h2v1h-2zM21 22h1v1h-1zM23 22h1v1h-1zM0 23h7v1H0zM9 23h1v1H9zM11 23h1v1h-1zM15 23h1v1h-1zM17 23h2v1h-2zM20 23h1v1h-1zM22 23h3v1h-3zM13 24h3v1h-3zM17 24h4v1h-4zM23 24h1v1h-1z"/>
    </g>
    <text x="0" y="180" text-anchor="middle" font-family="Arial, sans-serif" font-size="20" fill="#aaaaaa" letter-spacing="2">SCAN FOR PROTOCOL</text>
  </g>

  <g transform="translate(540, 900)">
    <path d="M0 -150 L130 -80 V80 L0 150 L-130 80 V-80 Z" fill="none" stroke="#ffffff" stroke-width="8"/>
    <path d="M0 -110 L90 -60 V60 L0 110 L-90 60 V-60 Z" fill="#1a237e" opacity="0.8"/>
    
    <text x="0" y="250" text-anchor="middle" font-family="Arial, sans-serif" font-weight="bold" font-size="60" fill="#ffffff" letter-spacing="4">FAIR FAITH</text>
    <text x="0" y="320" text-anchor="middle" font-family="Arial, sans-serif" font-size="30" fill="#aaaaaa" letter-spacing="8">PROTOCOL PROTECTED</text>
    
    <g transform="translate(0, 500)">
      <rect x="-400" y="0" width="800" height="200" rx="10" fill="none" stroke="#ff3d00" stroke-width="4"/>
      <text x="0" y="60" text-anchor="middle" font-family="Arial, sans-serif" font-weight="bold" font-size="40" fill="#ff3d00">WARNING</text>
      <text x="0" y="120" text-anchor="middle" font-family="Arial, sans-serif" font-size="28" fill="#ffffff">SOLICITATION REJECTED</text>
      <text x="0" y="160" text-anchor="middle" font-family="Arial, sans-serif" font-size="24" fill="#cccccc">LOG_ID: REFUSAL_AUTO_GENERATED</text>
    </g>
  </g>
</svg>
